<?xml version="1.0" encoding="UTF-8"?>
<!DOCTYPE svg PUBLIC "-//W3C//DTD SVG 1.0//EN" "http://www.w3.org/TR/2001/REC-SVG-20010904/DTD/svg10.dtd">
<!-- Creator: CorelDRAW X8 -->
<svg xmlns="http://www.w3.org/2000/svg" xml:space="preserve" width="100%" height="100%" version="1.0" style="shape-rendering:geometricPrecision; text-rendering:geometricPrecision; image-rendering:optimizeQuality; fill-rule:evenodd; clip-rule:evenodd"
viewBox="0 0 2100000 2100000"
 xmlns:xlink="http://www.w3.org/1999/xlink">
 <defs>
  <style type="text/css">
   <![CDATA[
    .str0 {stroke:#EBEB05;stroke-width:1500}
    .fil7 {fill:none}
    .fil3 {fill:#6B801D}
    .fil5 {fill:#75930C}
    .fil2 {fill:#807901}
    .fil1 {fill:#807B1D}
    .fil4 {fill:#82AE01}
    .fil0 {fill:#93690C}
    .fil6 {fill:#75930C;fill-rule:nonzero}
    .fil8 {fill:#E8E805;fill-rule:nonzero}
   ]]>
  </style>
 </defs>
 <g id="Camada_x0020_1">
  <metadata id="CorelCorpID_0Corel-Layer"/>
  <g id="_874456480">
   <path class="fil0" d="M1414166 1400458c-15753,-8713 -31368,-24290 -42775,-36269 -30668,49792 -87431,128176 -136998,128176 -68707,0 -187905,-177116 -207918,-208352 -14364,17038 -30950,30702 -46727,44380 34317,101440 94816,185308 145903,248174 2660,59434 -11362,116775 -9260,185221l177043 0c3315,-59410 1068,-130871 -475,-172897 44976,-55695 95684,-125888 121207,-188433z"/>
   <path class="fil1" d="M600245 1315025c-43708,25906 -96690,17311 -118405,-19271 -21732,-36461 -3960,-87179 39700,-113109 43681,-25967 96650,-17334 118396,19210 21714,36519 3970,87227 -39691,113170z"/>
   <path class="fil2" d="M1530697 355181c-24837,44291 -75000,63270 -112161,42451 -37006,-20826 -46921,-73591 -22070,-117872 24872,-44291 75118,-63300 112196,-42481 37067,20825 46944,73594 22035,117902z"/>
   <path class="fil2" d="M1025386 421545c19416,46900 3305,98139 -35961,114422 -39284,16263 -86893,-8557 -106323,-55471 -19465,-46975 -3364,-98186 35875,-114476 39335,-16246 86931,8598 106409,55525z"/>
   <path class="fil1" d="M1745866 1138575c45528,22390 67222,71506 48485,109652 -18817,38136 -70879,50887 -116483,28507 -45673,-22462 -67315,-71578 -48475,-109714 18758,-38122 70869,-50932 116473,-28445z"/>
   <path class="fil1" d="M1506618 922283c-49223,12520 -97508,-10794 -108005,-52007 -10445,-41235 20967,-84767 70169,-97274 49271,-12461 97687,10852 108039,52107 10484,41210 -20905,84760 -70203,97174z"/>
   <path class="fil1" d="M460232 727092c-44036,-25403 -62422,-75797 -41169,-112613 21270,-36864 74122,-46138 118092,-20808 44047,25443 62432,75903 41121,112688 -21222,36875 -74111,46138 -118044,20733z"/>
   <path class="fil3" d="M1801664 356653c-41851,259559 -253929,403557 -529207,389482 41269,-255517 268082,-419551 529207,-389482z"/>
   <path class="fil4" d="M1282523 82154c131643,171963 103694,404814 -59516,541937 -129554,-169362 -106296,-402706 59516,-541937z"/>
   <path class="fil2" d="M1318819 1109995c240681,12217 360038,177519 356285,346409 -203899,6351 -346797,-132405 -356285,-346409z"/>
   <path class="fil4" d="M558419 405693c264050,41513 444119,243531 446676,501829 -257785,-23351 -458466,-239202 -446676,-501829z"/>
   <path class="fil1" d="M1128122 929885c-125288,-101336 -163669,-292830 -49640,-413920 142185,98704 154640,285227 49640,413920z"/>
   <path class="fil4" d="M652993 875135c-120955,67212 -305622,39673 -378092,-80821 117544,-69373 304515,-41531 378092,80821z"/>
   <path class="fil4" d="M1064546 392449c-121456,-71823 -143163,-225597 -60633,-319011 119660,70834 142029,223385 60633,319011z"/>
   <path class="fil4" d="M837880 431712c-116896,-19127 -177970,-119261 -144707,-231129 115159,18955 178591,117586 144707,231129z"/>
   <path class="fil4" d="M1200448 922334c13513,-98565 79287,-158819 177877,-145262 -16338,101488 -76651,145393 -177877,145262z"/>
   <path class="fil5" d="M636052 1468655c-9570,-236539 207890,-479650 440163,-499683 -4453,245386 -168238,457632 -440163,499683z"/>
   <path class="fil4" d="M1232160 1431232c-147268,-101474 -184759,-291496 -91539,-440890 145025,99993 186211,289077 91539,440890z"/>
   <path class="fil4" d="M372019 1094990c99100,-171115 356550,-241243 527700,-136508 -107294,155825 -312366,205426 -527700,136508z"/>
   <path class="fil4" d="M1989028 679751c-77909,138586 -231207,176050 -396120,108005 83609,-146307 249611,-186314 396120,-108005z"/>
   <path class="fil4" d="M2019372 1012829c-167914,130019 -408120,93879 -532566,-38164 162155,-120714 373402,-109366 532566,38164z"/>
   <path class="fil4" d="M1506773 1058802c-124354,45424 -229067,15208 -317260,-90002 111355,-51091 245361,-19016 317260,90002z"/>
  </g>
  <path class="fil6" d="M204055 1610775l0 131271c0,5261 1693,9250 5006,11881 3306,2716 7636,3988 12897,3988l13914 0 0 11966 -95464 0 0 -11966 13920 0c6620,0 11284,-1272 13915,-3988 2716,-2631 3988,-6620 3988,-11881l0 -284440c0,-5261 -1272,-9250 -3988,-11880 -2631,-2716 -7295,-3989 -13915,-3989l-11880 0 0 -11966 117271 0c33182,0 58721,8319 76630,24864 17903,16545 26812,37505 26812,62624 0,30551 -9584,53715 -28852,69670 -19176,15869 -42091,23846 -68561,23846l-61693 0zm49727 -11966c19943,0 37505,-5943 52698,-17909 15273,-11881 22909,-32414 22909,-61608 0,-26555 -6278,-46072 -18926,-58720 -12557,-12557 -32835,-18835 -60670,-18835l-27835 0c-5261,0 -9591,1273 -12897,3989 -3313,2630 -5006,6619 -5006,11880l0 141203 49727 0zm423602 59653c0,33182 -9925,60676 -29783,82567 -19943,21892 -44466,32841 -73574,32841 -30544,0 -55408,-11284 -74590,-33858 -19261,-22488 -28852,-49726 -28852,-81550 0,-29108 9591,-55664 28852,-79511 19182,-23846 44046,-35812 74590,-35812 31824,0 56943,11966 75529,35812 18578,23847 27828,50403 27828,79511zm-174975 2040c0,34448 6961,59994 20875,76539 13914,16630 30800,24863 50743,24863 22489,0 40057,-8909 52699,-26812 12556,-17909 18841,-42773 18841,-74590 0,-34454 -6960,-60676 -20875,-78579 -13921,-17909 -30807,-26818 -50665,-26818 -18585,0 -35130,8909 -49726,26818 -14597,17903 -21892,44125 -21892,78579zm312268 -55670c0,-19943 7558,-35130 22830,-45738 15272,-10608 33516,-15955 54732,-15955 11881,0 23171,1699 33772,5006 10608,3312 17910,4926 21899,4926 3988,0 7295,-682 9925,-1955 2631,-1358 5944,-3988 9932,-7977l7971 65681 -11959 1955c-5261,-17227 -14262,-30807 -26818,-40732 -12642,-10018 -26812,-14938 -42767,-14938 -17227,0 -30807,3313 -40732,9932 -10011,6613 -14938,15863 -14938,27829 0,10608 2296,18926 6960,24863 4579,5944 12898,10267 24864,12898 9250,3988 20874,8318 34789,12982 13921,4586 26818,9591 38784,14853 10608,5346 19517,12307 26812,20960 7301,8574 10949,18159 10949,28767 0,19943 -6961,35471 -20875,46755 -13921,11290 -34113,16892 -60676,16892 -17227,0 -30124,-1614 -38777,-4927 -8575,-3306 -15529,-5005 -20875,-5005 -3989,0 -8233,1017 -12898,2972 -4671,2033 -9591,4330 -14937,6960l-5937 -73573 11880 -1955c3982,21216 12642,37085 25880,47693 13239,10608 31818,15955 55664,15955 18585,0 32841,-3313 42773,-9933 9926,-6704 14931,-16630 14931,-29869 0,-9250 -2630,-16886 -7977,-22829 -5261,-6023 -10608,-10352 -15869,-12983 -13239,-5261 -27829,-10942 -43783,-16886 -15870,-5937 -29784,-11625 -41750,-16886 -11966,-5347 -20540,-11966 -25887,-19943 -5261,-7892 -7892,-16545 -7892,-25795zm684117 167004c-23846,0 -42432,-5602 -55664,-16892 -13238,-11284 -19943,-24182 -19943,-38778 0,-23847 10267,-43449 30886,-58636 20540,-15272 61266,-26221 122283,-32840l0 -23847c0,-13239 -2972,-24181 -8909,-32841 -6029,-8567 -19602,-12897 -40818,-12897 -22488,0 -38443,3647 -47693,10949 -9335,7295 -12641,14846 -10011,22823 2716,5347 2716,10608 0,15955 -2630,5261 -7892,7892 -15869,7892 -5347,0 -9591,-1614 -12897,-4921 -3313,-3312 -5006,-8318 -5006,-14937 0,-11966 8653,-23164 25880,-33772 17227,-10608 38443,-15955 63641,-15955 26478,0 46421,5006 59659,14938 13239,9925 19858,24181 19858,42766l0 131277c0,10608 1017,16886 2965,18835 2041,2040 5688,2972 10949,2972 6620,0 11284,-2972 13915,-8909 2716,-5937 3988,-14256 3988,-24864l9933 0c0,18586 -3313,31483 -9933,38778 -6619,7302 -15187,10949 -25794,10949 -9336,0 -16631,-1955 -21892,-5937 -5347,-3988 -9335,-10608 -11966,-19943 -13239,9335 -25546,16289 -36829,20875 -11205,4664 -24778,6960 -40733,6960zm-41749 -61607c0,11880 3647,22823 10949,32834 7295,9932 18834,14852 34789,14852 11966,0 23846,-2289 35812,-6960 11881,-4579 24522,-11540 37761,-20875l0 -93424c-45062,5261 -76204,14255 -93431,26811 -17313,12648 -25880,28177 -25880,46762zm375915 -133232c0,-5347 -1357,-9670 -3988,-12983 -2716,-3307 -7302,-4920 -13914,-4920l-41835 0 0 -11966 19936 0c11881,0 23171,-1017 33773,-2972 10608,-2034 20540,-5681 29875,-10943l3989 0 0 208833c0,5261 1607,9250 4920,11881 3306,2716 7636,3988 12983,3988l41749 0 0 11966 -147225 0 0 -11966 41835 0c6612,0 11198,-1272 13914,-3988 2631,-2631 3988,-6620 3988,-11881l0 -165049zm41750 -123379c0,7977 -2716,14590 -7977,19936 -5347,5262 -11966,7978 -19858,7978 -7977,0 -14597,-2716 -19943,-7978 -5262,-5346 -7971,-11959 -7971,-19936 0,-7892 2709,-14512 7971,-19858 5346,-5261 11966,-7977 19943,-7977 7892,0 14511,2716 19858,7977 5261,5346 7977,11966 7977,19858z"/>
  <line class="fil7 str0" x1="109096" y1="1821210" x2="2004557" y2= "1827152" />
  <path class="fil8" d="M188330 2035034l-2545 0c-15896,0 -30702,-4166 -44433,-12498 -13730,-8331 -24575,-19398 -32519,-33208 -7944,-13809 -11920,-28504 -11920,-44085 0,-24535 8876,-45633 26615,-63299 17745,-17661 38961,-26497 63641,-26497 16512,0 32172,4323 46985,12963l0 8561c-14505,-9873 -30164,-14813 -46985,-14813 -22679,0 -42117,8141 -58314,24417 -16204,16276 -24299,35793 -24299,58550 0,22758 8095,42314 24299,58669 16197,16354 35635,24529 58314,24529 16821,0 32480,-4940 46985,-14814l0 8568c-14039,8640 -29318,12957 -45824,12957zm138159 0c-14813,0 -27540,-5517 -38187,-16545 -10647,-11035 -15968,-23880 -15968,-38535 0,-14656 5399,-27343 16198,-38069 10798,-10720 23800,-16086 38994,-16086 15200,0 28156,5366 38882,16086 10720,10726 16086,23453 16086,38187 0,14734 -5248,27579 -15738,38528 -10496,10956 -23223,16434 -38187,16434l-2080 0zm48599 -54503c0,-13035 -4671,-24338 -14007,-33903 -9328,-9565 -20481,-14348 -33437,-14348 -12963,0 -24188,4822 -33674,14466 -9486,9643 -14229,20940 -14229,33903 0,12957 4743,24181 14229,33674 9486,9486 20750,14229 33792,14229 13035,0 24181,-4743 33438,-14229 9256,-9493 13888,-20750 13888,-33792zm149495 -52187l0 104144 -7407 0 0 -25919c-4316,8797 -10798,15738 -19438,20829 -8640,5090 -17896,7636 -27769,7636 -15122,0 -28085,-5360 -38883,-16086 -10798,-10720 -16197,-23564 -16197,-38528 0,-14971 5399,-27809 16197,-38535 10798,-10720 23761,-16086 38883,-16086 9873,0 19320,2624 28346,7872 9027,5242 15312,12189 18861,20829l0 -26156 7407 0zm-102288 52305c0,12957 4743,24181 14229,33674 9487,9486 20751,14229 33792,14229 13036,0 24181,-4743 33438,-14229 9256,-9493 13888,-20750 13888,-33792 0,-13035 -4671,-24338 -14006,-33903 -9329,-9565 -20481,-14348 -33438,-14348 -12963,0 -24187,4822 -33674,14466 -9486,9643 -14229,20940 -14229,33903zm196710 54850l-2080 0c-14813,0 -27540,-5477 -38187,-16433 -10648,-10956 -15968,-23801 -15968,-38535 0,-14734 5399,-27461 16197,-38181 10798,-10726 24070,-16085 39808,-16085 15738,0 29160,5937 40267,17817l0 11802c-4783,-7098 -10838,-12727 -18166,-16892 -7327,-4166 -15003,-6246 -23026,-6246 -12806,0 -23958,4743 -33444,14229 -9486,9493 -14229,20790 -14229,33904 0,13114 4743,24417 14229,33903 9486,9493 20638,14236 33444,14236 8023,0 15699,-2086 23026,-6252 7328,-4166 13383,-9873 18166,-17122l0 12031c-10798,11881 -24149,17824 -40037,17824zm83308 -3011l-7400 0 0 -173335 7400 0 0 89325c7715,-15115 21065,-22679 40037,-22679 12964,0 23880,4474 32749,13422 8870,8948 13311,19825 13311,32631l0 60636 -7406 0 0 -60636c0,-10798 -3786,-20094 -11343,-27881 -7558,-7794 -16663,-11691 -27311,-11691 -10640,0 -19975,3937 -27999,11802 -8023,7873 -12038,17129 -12038,27770l0 60636zm228415 -173571l61791 0 0 6711 -54155 0 0 93963 45128 0 0 6711 -45128 0 0 66186 -7636 0 0 -173571zm108074 69663l0 103908 -7407 0 0 -103908 7407 0zm-3700 -25460c-4474,0 -6711,-2080 -6711,-6245 0,-4166 2237,-6252 6711,-6252 4474,0 6711,2086 6711,6252 0,4165 -2237,6245 -6711,6245zm58078 129368l-7400 0 0 -104144 7400 0 0 21065c7872,-15738 21295,-23610 40273,-23610 12957,0 23834,4474 32631,13422 8791,8948 13193,19825 13193,32631l0 60636 -7407 0 0 -60636c0,-10641 -3746,-19897 -11224,-27770 -7486,-7865 -16552,-11802 -27193,-11802 -10647,0 -20022,3937 -28117,11802 -8102,7873 -12156,17129 -12156,27770l0 60636zm233972 -104144l0 104144 -7407 0 0 -25919c-4317,8797 -10798,15738 -19438,20829 -8640,5090 -17896,7636 -27770,7636 -15121,0 -28084,-5360 -38882,-16086 -10798,-10720 -16198,-23564 -16198,-38528 0,-14971 5400,-27809 16198,-38535 10798,-10720 23761,-16086 38882,-16086 9874,0 19320,2624 28347,7872 9027,5242 15312,12189 18861,20829l0 -26156 7407 0zm-102288 52305c0,12957 4743,24181 14229,33674 9486,9486 20750,14229 33792,14229 13035,0 24181,-4743 33438,-14229 9256,-9493 13888,-20750 13888,-33792 0,-13035 -4671,-24338 -14006,-33903 -9329,-9565 -20482,-14348 -33438,-14348 -12963,0 -24188,4822 -33674,14466 -9486,9643 -14229,20940 -14229,33903zm153661 51839l-7400 0 0 -104144 7400 0 0 21065c7872,-15738 21294,-23610 40273,-23610 12957,0 23834,4474 32631,13422 8791,8948 13193,19825 13193,32631l0 60636 -7407 0 0 -60636c0,-10641 -3746,-19897 -11224,-27770 -7486,-7865 -16552,-11802 -27193,-11802 -10647,0 -20022,3937 -28117,11802 -8102,7873 -12156,17129 -12156,27770l0 60636zm180512 3011l-2080 0c-14813,0 -27540,-5477 -38187,-16433 -10647,-10956 -15968,-23801 -15968,-38535 0,-14734 5400,-27461 16198,-38181 10798,-10726 24069,-16085 39807,-16085 15738,0 29161,5937 40267,17817l0 11802c-4782,-7098 -10837,-12727 -18165,-16892 -7328,-4166 -15003,-6246 -23027,-6246 -12805,0 -23958,4743 -33444,14229 -9486,9493 -14229,20790 -14229,33904 0,13114 4743,24417 14229,33903 9486,9493 20639,14236 33444,14236 8024,0 15699,-2086 23027,-6252 7328,-4166 13383,-9873 18165,-17122l0 12031c-10798,11881 -24148,17824 -40037,17824zm127977 -236l-2086 0c-14655,0 -27422,-5510 -38299,-16545 -10876,-11034 -16315,-23872 -16315,-38535 0,-14655 5399,-27343 16197,-38069 10805,-10719 24149,-16079 40038,-16079 15895,0 29547,6324 40962,18972l-72668 71743c10031,8023 19674,12038 28931,12038 9256,0 17548,-2125 24876,-6370 7328,-4238 13390,-9912 18172,-17004l0 11802c-10956,12032 -24227,18047 -39808,18047zm-2427 -102753c-12268,0 -23144,4750 -32637,14236 -9486,9486 -14229,20402 -14229,32749 0,12339 4087,23138 12267,32394l67341 -66882c-9564,-8331 -20481,-12497 -32742,-12497zm91522 -3930l0 103908 -7406 0 0 -103908 7406 0zm-3700 -25460c-4474,0 -6711,-2080 -6711,-6245 0,-4166 2237,-6252 6711,-6252 4474,0 6711,2086 6711,6252 0,4165 -2237,6245 -6711,6245zm111538 39342c-6784,-6790 -14269,-10182 -22443,-10182 -8180,0 -15390,3084 -21642,9257 -6245,6173 -9375,13343 -9375,21524l0 69427 -7400 0 0 -104144 7400 0 0 15509c2782,-5249 7098,-9565 12963,-12963 5865,-3392 12419,-5091 19675,-5091 7249,0 14189,2473 20822,7406l0 9257zm84240 92572c-14813,0 -27540,-5517 -38187,-16545 -10647,-11035 -15968,-23880 -15968,-38535 0,-14656 5399,-27343 16197,-38069 10799,-10720 23801,-16086 38995,-16086 15200,0 28156,5366 38882,16086 10720,10726 16086,23453 16086,38187 0,14734 -5248,27579 -15738,38528 -10496,10956 -23223,16434 -38187,16434l-2080 0zm48598 -54503c0,-13035 -4670,-24338 -14006,-33903 -9328,-9565 -20481,-14348 -33437,-14348 -12963,0 -24188,4822 -33674,14466 -9486,9643 -14229,20940 -14229,33903 0,12957 4743,24181 14229,33674 9486,9486 20750,14229 33792,14229 13035,0 24181,-4743 33437,-14229 9257,-9493 13888,-20750 13888,-33792z"/>
 </g>
</svg>
